<svg width="40" height="9" viewBox="0 0 40 9" fill="none" xmlns="http://www.w3.org/2000/svg">
<path d="M7.9028 0.874228C9.76764 0.874228 11.3096 2.26913 11.5279 4.06277L0 4.06277L0 4.93723L11.5279 4.93723C11.3096 6.73087 9.76764 8.12553 7.9028 8.12553H0L0 9H7.9028C10.254 9 12.1924 7.21414 12.4146 4.93723H17.1831V5.97664L40 5.97664V3.02324L17.1831 3.02324V4.06289H12.4146C12.1924 1.78598 10.254 0 7.9028 0H0L0 0.87435H7.9028V0.874228ZM18.0641 3.89771L39.119 3.89771V5.10217L18.0641 5.10217V3.89771Z" fill="#DCCA87"/>
</svg>
